HIERARCHY
ROOT Hips
{
	OFFSET -0.001795 -0.223333 0.028219
	CHANNELS 6 Xposition Yposition Zposition Zrotation Yrotation Xrotation 
	JOINT LeftUpLeg
	{
		OFFSET 0.069520 -0.091406 -0.006815
		CHANNELS 3 Zrotation Yrotation Xrotation
		JOINT LeftLeg
		{
			OFFSET 0.034277 -0.375199 -0.004496
			CHANNELS 3 Zrotation Yrotation Xrotation
			JOINT LeftFoot
			{
				OFFSET -0.013596 -0.397961 -0.043693
				CHANNELS 3 Zrotation Yrotation Xrotation
				JOINT LeftToe
				{
					OFFSET 0.026358 -0.055791 0.119288
					CHANNELS 3 Zrotation Yrotation Xrotation
					End Site
					{
						OFFSET 0.000000 0.000000 0.000000
					}
				}
			}
		}
	}
	JOINT RightUpLeg
	{
		OFFSET -0.067670 -0.090522 -0.004320
		CHANNELS 3 Zrotation Yrotation Xrotation
		JOINT RightLeg
		{
			OFFSET -0.038290 -0.382569 -0.008850
			CHANNELS 3 Zrotation Yrotation Xrotation
			JOINT RightFoot
			{
				OFFSET 0.015774 -0.398415 -0.042312
				CHANNELS 3 Zrotation Yrotation Xrotation
				JOINT RightToe
				{
					OFFSET -0.025372 -0.048144 0.123348
					CHANNELS 3 Zrotation Yrotation Xrotation
					End Site
					{
						OFFSET 0.000000 0.000000 0.000000
					}
				}
			}
		}
	}
	JOINT Spine
	{
		OFFSET -0.002533 0.108963 -0.026696
		CHANNELS 3 Zrotation Yrotation Xrotation
		JOINT Spine1
		{
			OFFSET 0.005487 0.135180 0.001092
			CHANNELS 3 Zrotation Yrotation Xrotation
			JOINT Spine2
			{
				OFFSET 0.001457 0.052922 0.025425
				CHANNELS 3 Zrotation Yrotation Xrotation
				JOINT Neck
				{
					OFFSET -0.002778 0.213870 -0.042857
					CHANNELS 3 Zrotation Yrotation Xrotation
					JOINT Head
					{
						OFFSET 0.005152 0.064970 0.051349
						CHANNELS 3 Zrotation Yrotation Xrotation
						End Site
						{
							OFFSET 0.000000 0.000000 0.000000
						}
					}
				}
				JOINT LeftShoulder
				{
					OFFSET 0.078845 0.121749 -0.034090
					CHANNELS 3 Zrotation Yrotation Xrotation
					JOINT LeftArm
					{
						OFFSET 0.090977 0.030469 -0.008868
						CHANNELS 3 Zrotation Yrotation Xrotation
						JOINT LeftForeArm
						{
							OFFSET 0.259612 -0.012772 -0.027456
							CHANNELS 3 Zrotation Yrotation Xrotation
							JOINT LeftHand
							{
								OFFSET 0.249234 0.008986 -0.001171
								CHANNELS 3 Zrotation Yrotation Xrotation
								End Site
								{
									OFFSET 0.000000 0.000000 0.000000
								}
							}
						}
					}
				}
				JOINT RightShoulder
				{
					OFFSET -0.081759 0.118833 -0.038615
					CHANNELS 3 Zrotation Yrotation Xrotation
					JOINT RightArm
					{
						OFFSET -0.096012 0.032551 -0.009143
						CHANNELS 3 Zrotation Yrotation Xrotation
						JOINT RightForeArm
						{
							OFFSET -0.253742 -0.013329 -0.021401
							CHANNELS 3 Zrotation Yrotation Xrotation
							JOINT RightHand
							{
								OFFSET -0.255298 0.007772 -0.005559
								CHANNELS 3 Zrotation Yrotation Xrotation
								End Site
								{
									OFFSET 0.000000 0.000000 0.000000
								}
							}
						}
					}
				}
			}
		}
	}
}
MOTION
Frames: 18
Frame Time: 0.050000
0.000000 0.955564 0.000000 1.047212 -2.930801 -2.584126 -1.556213 0.273381 2.502547 0.596882 -0.012261 -1.482923 -3.734788 -3.464315 8.644878 0.000000 0.000000 0.000000 0.602531 -0.231698 2.158029 0.805510 -0.108855 -0.831914 -6.047569 -16.142140 9.040642 0.000000 0.000000 0.000000 -0.531043 -0.061823 1.718494 -1.993537 0.965569 0.365950 1.022924 2.982151 8.232355 -3.345067 3.293499 -14.595224 0.000000 0.000000 0.000000 -23.425259 -8.068216 2.186626 -48.220568 -9.511191 -2.273668 -8.396724 -23.513672 2.610324 0.000000 0.000000 0.000000 18.607842 10.862492 4.518414 56.440904 5.598087 -3.322159 7.497717 26.184375 2.573842 0.000000 0.000000 0.000000 
0.000563 0.954494 0.001500 0.974712 -2.441196 -2.138342 -1.205125 0.306065 2.882579 0.278115 0.065791 -2.697353 -4.225674 -4.636768 7.974059 0.000000 0.000000 0.000000 0.289031 -0.276455 2.721278 0.877112 -0.145247 -1.748335 -6.371455 -16.621013 8.045138 0.000000 0.000000 0.000000 -0.353216 -0.016988 0.454663 -2.017952 0.978214 0.994087 0.740925 3.188245 8.420384 -5.185916 4.524694 -16.975554 0.000000 0.000000 0.000000 -22.916674 -8.125455 2.069478 -49.049434 -10.287122 -1.965082 -8.642316 -23.816332 2.679062 0.000000 0.000000 0.000000 18.634875 10.706514 4.597441 57.238660 5.297276 -3.542176 7.525352 27.139439 2.726002 0.000000 0.000000 0.000000 
0.000991 0.954308 0.002611 1.101819 -2.566809 -1.564997 -1.555912 0.187067 1.674957 1.095629 -0.085493 -0.951117 -4.397798 -5.626546 6.703468 0.000000 0.000000 0.000000 -0.118229 -0.163948 1.742687 1.533604 -0.180979 -0.984269 -7.022059 -17.859071 7.857055 0.000000 0.000000 0.000000 0.132875 0.006752 -0.176518 -2.453901 1.181043 -0.423293 0.548897 3.066526 9.388681 -5.904756 4.963119 -17.188641 0.000000 0.000000 0.000000 -21.846207 -8.004757 2.137879 -49.546114 -10.646335 -1.953970 -10.298686 -22.170261 2.824689 0.000000 0.000000 0.000000 19.571846 11.194628 4.896266 56.388179 4.687953 -3.873333 7.736810 26.985147 2.748678 0.000000 0.000000 0.000000 
0.001195 0.953556 0.003735 1.416737 -2.201913 -1.882806 -1.695598 0.236237 2.109170 1.110328 -0.080681 -1.082886 -5.400952 -7.328394 7.013901 0.000000 0.000000 0.000000 -0.416540 -0.187652 2.111430 1.730778 -0.203076 -1.086751 -7.859718 -19.461851 8.080477 0.000000 0.000000 0.000000 -0.423801 0.029064 -0.764496 -2.526865 1.229022 1.043777 0.783213 2.496923 8.605973 -7.286119 5.737544 -16.641457 0.000000 0.000000 0.000000 -22.184088 -8.004275 2.226945 -49.418385 -11.161796 -1.701206 -10.558520 -21.736189 2.825222 0.000000 0.000000 0.000000 19.632385 11.762670 5.059311 56.160177 4.359524 -3.909813 7.628750 27.115957 2.702563 0.000000 0.000000 0.000000 
0.001397 0.953466 0.004715 1.524379 -2.484439 -2.240854 -2.215617 0.231931 1.986536 1.680331 -0.179229 -0.309234 -5.007903 -6.894182 6.500761 0.000000 0.000000 0.000000 -0.574131 -0.193381 2.253876 1.706914 -0.191287 -0.729148 -7.397706 -18.570583 7.772013 0.000000 0.000000 0.000000 -0.146308 0.022001 -0.560890 -2.855368 1.392191 0.878798 0.775138 2.482734 8.503778 -7.596802 5.923340 -16.176001 0.000000 0.000000 0.000000 -22.003876 -8.346780 2.476260 -49.493382 -10.600137 -1.939743 -11.683707 -21.868006 3.064075 0.000000 0.000000 0.000000 19.969678 11.209852 4.706847 55.537856 4.078177 -3.987014 8.489723 27.235750 2.898679 0.000000 0.000000 0.000000 
0.001555 0.953137 0.005492 1.531275 -2.150573 -2.451075 -2.102281 0.236229 2.052848 1.646173 -0.190273 0.018109 -5.018437 -7.063175 6.183569 0.000000 0.000000 0.000000 -0.717224 -0.205663 2.437540 1.944539 -0.212454 -0.601581 -7.065945 -17.906799 7.498101 0.000000 0.000000 0.000000 -0.229058 0.014322 -0.378579 -2.676148 1.300336 0.566204 0.862615 2.191586 8.732848 -8.381284 6.388190 -16.461171 0.000000 0.000000 0.000000 -22.148068 -8.312443 2.505714 -49.501299 -10.665230 -1.949615 -12.553074 -21.873619 3.240930 0.000000 0.000000 0.000000 19.833720 11.546508 4.855963 55.597633 4.134343 -3.983499 8.183337 26.628377 2.752042 0.000000 0.000000 0.000000 
0.001742 0.952960 0.005872 1.543768 -2.256147 -2.649866 -2.198274 0.237486 2.056538 1.738888 -0.206662 0.126037 -4.836636 -6.623261 6.361336 0.000000 0.000000 0.000000 -0.885822 -0.178217 2.211158 2.046054 -0.206820 0.085852 -6.943814 -17.624843 6.927786 0.000000 0.000000 0.000000 -0.303734 0.008279 -0.232909 -2.456940 1.191768 0.341710 0.670710 2.094777 8.756498 -8.262649 6.313729 -16.295337 0.000000 0.000000 0.000000 -22.356881 -8.105137 2.421906 -49.369257 -10.155678 -2.167320 -12.732262 -21.987492 3.298431 0.000000 0.000000 0.000000 20.129705 11.526868 4.819680 55.388704 4.117890 -3.978382 8.158553 26.514311 2.726918 0.000000 0.000000 0.000000 
0.001913 0.952824 0.006063 1.463619 -1.978265 -2.602843 -2.142322 0.207822 1.800784 1.608437 -0.217145 0.681162 -4.752240 -6.784880 5.738383 0.000000 0.000000 0.000000 -0.809285 -0.159164 1.950888 2.131094 -0.207467 0.525155 -6.926507 -17.557503 6.552622 0.000000 0.000000 0.000000 -0.360295 0.003748 -0.115039 -2.307337 1.118365 0.407061 0.624623 1.996064 8.533735 -8.395292 6.385951 -16.507264 0.000000 0.000000 0.000000 -22.469191 -8.121489 2.399019 -48.969272 -10.301361 -2.070067 -13.396247 -22.038752 3.430000 0.000000 0.000000 0.000000 20.118402 11.446329 4.788108 55.397389 4.314854 -3.874797 8.110464 26.298170 2.692935 0.000000 0.000000 0.000000 
0.002071 0.952926 0.006270 1.464478 -2.032064 -2.842954 -2.215230 0.215648 1.869815 1.454169 -0.211847 0.964811 -4.536030 -6.435390 5.618901 0.000000 0.000000 0.000000 -0.817644 -0.153724 1.891794 2.319715 -0.214194 1.187717 -7.147173 -17.977901 6.318817 0.000000 0.000000 0.000000 -0.534791 -0.005228 0.114092 -2.046818 0.991511 0.401209 0.534936 2.107069 8.563461 -8.519171 6.483187 -16.280977 0.000000 0.000000 0.000000 -22.586855 -8.210403 2.417813 -48.783763 -10.398307 -2.022021 -13.578612 -21.966211 3.448788 0.000000 0.000000 0.000000 20.225539 11.643226 4.929834 55.112931 4.493659 -3.787924 7.701930 26.191319 2.594548 0.000000 0.000000 0.000000 
0.002239 0.953106 0.006581 1.496590 -2.095899 -3.033082 -2.389429 0.228259 1.962069 1.517354 -0.226508 1.106212 -4.400979 -6.388491 5.238943 0.000000 0.000000 0.000000 -0.842982 -0.134803 1.690219 2.318293 -0.204301 1.653774 -7.216612 -18.109280 6.219438 0.000000 0.000000 0.000000 -0.751391 -0.011322 0.276432 -1.863520 0.902405 0.649638 0.606536 2.120970 8.257447 -8.682828 6.572670 -16.239074 0.000000 0.000000 0.000000 -22.858915 -8.141348 2.369858 -48.558965 -10.462577 -1.965027 -13.958251 -21.937347 3.516092 0.000000 0.000000 0.000000 20.059887 11.773646 4.971503 55.092998 4.601867 -3.705232 7.643993 26.302036 2.588410 0.000000 0.000000 0.000000 
0.002323 0.953219 0.006958 1.496070 -2.210120 -3.044392 -2.534018 0.241270 2.051975 1.594595 -0.230291 0.976419 -4.239147 -6.070257 5.257666 0.000000 0.000000 0.000000 -0.797500 -0.123289 1.549728 2.285378 -0.191611 2.040827 -7.473263 -18.622659 6.291771 0.000000 0.000000 0.000000 -0.811076 -0.009794 0.231238 -1.752490 0.848107 0.746642 0.574586 2.083296 8.076144 -8.759986 6.613452 -16.007715 0.000000 0.000000 0.000000 -23.125821 -8.249774 2.451442 -48.279339 -10.545361 -1.915220 -14.089651 -21.970744 3.549671 0.000000 0.000000 0.000000 20.149964 11.941460 5.034228 54.749420 4.542330 -3.686023 8.084383 26.572929 2.706620 0.000000 0.000000 0.000000 
0.002245 0.953156 0.007313 1.478883 -2.377250 -3.017344 -2.679099 0.265229 2.230532 1.600950 -0.221110 0.757309 -3.914011 -5.572797 5.023570 0.000000 0.000000 0.000000 -0.723242 -0.111764 1.401643 2.149968 -0.167250 2.358255 -7.372955 -18.419845 6.226823 0.000000 0.000000 0.000000 -0.955435 -0.004865 0.083787 -1.659338 0.802294 0.802676 0.581988 2.044704 7.903125 -8.619266 6.506437 -16.056140 0.000000 0.000000 0.000000 -23.095978 -8.375883 2.561866 -48.238246 -10.481191 -1.934953 -14.062091 -22.005220 3.553767 0.000000 0.000000 0.000000 20.182285 11.958204 5.001365 54.785987 4.634209 -3.621753 8.361819 26.782789 2.785366 0.000000 0.000000 0.000000 
0.001996 0.953128 0.007571 1.362523 -2.662822 -2.942062 -2.683001 0.270521 2.272862 1.640193 -0.224838 0.722205 -3.734532 -5.295357 4.918584 0.000000 0.000000 0.000000 -0.555212 -0.097986 1.201279 1.963602 -0.137373 2.582535 -7.231750 -18.151929 6.363254 0.000000 0.000000 0.000000 -0.991523 -0.001572 -0.008703 -1.639356 0.792609 0.779593 0.793438 1.933221 7.808232 -8.494486 6.400131 -16.048635 0.000000 0.000000 0.000000 -23.211718 -8.689779 2.839445 -48.150757 -10.576037 -1.914765 -14.325159 -22.079234 3.628562 0.000000 0.000000 0.000000 20.206726 12.106005 4.995923 54.475518 4.837116 -3.486653 8.978913 27.007063 2.934680 0.000000 0.000000 0.000000 
0.001583 0.952862 0.007744 1.257469 -2.928453 -3.062851 -2.724193 0.280651 2.359656 1.767476 -0.240101 0.699302 -3.321622 -4.639942 4.648208 0.000000 0.000000 0.000000 -0.356150 -0.101902 1.182102 1.790499 -0.110981 2.724151 -7.059626 -17.808409 6.311909 0.000000 0.000000 0.000000 -1.168313 -0.001945 -0.015953 -1.526772 0.737652 1.055509 0.883692 1.847719 7.532293 -8.065135 6.108161 -16.000702 0.000000 0.000000 0.000000 -23.031707 -8.704893 2.916496 -48.115206 -10.585715 -1.907725 -14.331518 -22.241249 3.664882 0.000000 0.000000 0.000000 20.304178 12.391616 5.078404 54.210636 5.160762 -3.285715 9.501918 26.934409 3.025920 0.000000 0.000000 0.000000 
0.001051 0.952572 0.007866 1.129467 -3.207789 -3.015676 -2.576331 0.283792 2.412532 1.757699 -0.242382 0.758123 -3.161526 -4.407516 4.516644 0.000000 0.000000 0.000000 -0.224878 -0.099966 1.123458 1.653357 -0.091304 2.767703 -6.951358 -17.605334 6.390738 0.000000 0.000000 0.000000 -1.295039 -0.000759 -0.049700 -1.460084 0.705190 1.071387 0.956467 1.810910 7.469953 -7.651260 5.840679 -15.760353 0.000000 0.000000 0.000000 -22.909365 -8.762442 3.012026 -48.217471 -10.709464 -1.873011 -14.462194 -22.159342 3.684130 0.000000 0.000000 0.000000 20.331595 12.634429 5.155594 54.227096 5.436883 -3.142356 9.804528 27.125376 3.107610 0.000000 0.000000 0.000000 
0.000502 0.951937 0.007948 1.016974 -3.519302 -3.009331 -2.574573 0.276877 2.356518 2.006962 -0.274006 0.759289 -2.964505 -4.071934 4.446242 0.000000 0.000000 0.000000 -0.051825 -0.091883 0.987332 1.444478 -0.059666 2.909529 -6.713296 -17.125342 6.279029 0.000000 0.000000 0.000000 -1.353190 -0.002237 0.004558 -1.507852 0.730158 1.125775 0.964784 1.779214 7.256408 -6.592154 5.167823 -15.432088 0.000000 0.000000 0.000000 -22.836383 -8.737145 3.051766 -48.190159 -10.373987 -2.000503 -14.167336 -22.287759 3.654513 0.000000 0.000000 0.000000 20.673567 12.692811 5.134519 54.075953 5.428633 -3.099582 10.163121 27.024503 3.161292 0.000000 0.000000 0.000000 
0.000044 0.951391 0.007959 0.813732 -3.634811 -2.921499 -2.329815 0.265519 2.299751 1.975521 -0.272866 0.811113 -2.908660 -3.978833 4.421664 0.000000 0.000000 0.000000 0.164779 -0.089609 0.896125 1.261159 -0.035264 2.941645 -6.457284 -16.618186 6.277931 0.000000 0.000000 0.000000 -1.282729 -0.000737 -0.028953 -1.490166 0.721274 1.013812 0.912546 1.846908 7.341268 -5.800038 4.680141 -15.444742 0.000000 0.000000 0.000000 -22.788037 -8.700577 3.025244 -48.222437 -10.116054 -2.106897 -14.287152 -22.202842 3.663337 0.000000 0.000000 0.000000 21.080321 12.480905 5.041558 53.890243 5.430481 -3.098254 10.156641 26.865023 3.141577 0.000000 0.000000 0.000000 
-0.000218 0.950904 0.007882 0.644975 -3.915126 -2.814135 -2.350113 0.271230 2.341718 2.249546 -0.294740 0.566096 -2.765836 -3.695997 4.457702 0.000000 0.000000 0.000000 0.428530 -0.082352 0.743661 1.216816 -0.023634 3.091179 -6.336364 -16.367160 6.169586 0.000000 0.000000 0.000000 -1.244765 0.000339 -0.043396 -1.533466 0.743669 1.098189 0.890287 1.859662 7.148989 -4.511005 3.859473 -14.938448 0.000000 0.000000 0.000000 -22.826946 -8.752389 3.086054 -48.272490 -9.542223 -2.324327 -14.049762 -22.252596 3.627336 0.000000 0.000000 0.000000 21.380290 12.689174 5.127574 53.857078 5.404472 -3.076298 10.253567 26.664066 3.127640 0.000000 0.000000 0.000000 
